<svg width="356" height="104" viewBox="0 0 356 104" fill="none" xmlns="http://www.w3.org/2000/svg" role="img" aria-labelledby="title desc">
  <title id="title">Fuzion Operating Platform logo</title>
  <desc id="desc">Full FOP marketing mark with Living F, energized Halo O, and Fuzion Operating Platform wordmark.</desc>
  <defs>
    <filter id="halo" x="-45%" y="-45%" width="190%" height="190%" color-interpolation-filters="sRGB">
      <feGaussianBlur stdDeviation="2.4" result="blur"/>
      <feColorMatrix in="blur" type="matrix" values="0 0 0 0 0.149 0 0 0 0 0.714 0 0 0 0 1 0 0 0 0.26 0" result="blueGlow"/>
      <feMerge><feMergeNode in="blueGlow"/><feMergeNode in="SourceGraphic"/></feMerge>
    </filter>
  </defs>
  <rect width="356" height="104" rx="10" fill="#FFFFFF"/>
  <path d="M18 16H34V74H18V16Z" fill="#86EE62"/>
  <path d="M18 16H66V31H18V16Z" fill="#BFC5CE"/>
  <path d="M18 40H58V55H18V40Z" fill="#126BFF"/>
  <path d="M18 16H66V31H34V40H58V55H34V74H18V16Z" fill="none" stroke="rgba(7,18,35,0.16)"/>
  <circle cx="106" cy="45" r="24" fill="none" stroke="rgba(38,182,255,0.15)" stroke-width="10"/>
  <circle cx="106" cy="45" r="24" fill="none" stroke="#26B6FF" stroke-width="5.5" stroke-linecap="round" stroke-dasharray="125 24" filter="url(#halo)"/>
  <path d="M134 20H147C157 20 164 26 164 36C164 46 157 52 147 52H143V72H134V20ZM143 28V44H147C152 44 155 41 155 36C155 31 152 28 147 28H143Z" fill="#071223"/>
  <g font-family="Inter, Arial, sans-serif" font-weight="800">
    <text x="182" y="34" font-size="14" letter-spacing="3" fill="#071223">FUZION</text>
    <text x="182" y="54" font-size="17" fill="#071223">OPERATING PLATFORM™</text>
    <text x="182" y="73" font-size="9.5" letter-spacing="2.2" fill="#334155">BUILD • ADVISE • PROTECT</text>
    <text x="182" y="91" font-size="9.5" font-weight="700" fill="#64748B">Buildings Under Protection™</text>
  </g>
</svg>
